<svg xmlns="http://www.w3.org/2000/svg" viewBox="0 0 800 600" role="img" aria-labelledby="title desc">
  <title id="title">Web Project Placeholder</title>
  <desc id="desc">A browser mockup representing web development work.</desc>
  <rect width="800" height="600" fill="#F1F5F9"/>
  <rect x="90" y="80" width="620" height="440" rx="20" fill="#FFFFFF" stroke="#CBD5E1" stroke-width="6"/>
  <rect x="90" y="80" width="620" height="56" rx="20" fill="#E2E8F0"/>
  <circle cx="128" cy="108" r="8" fill="#EF4444"/>
  <circle cx="156" cy="108" r="8" fill="#F59E0B"/>
  <circle cx="184" cy="108" r="8" fill="#22C55E"/>
  <rect x="130" y="170" width="260" height="22" rx="11" fill="#0F172A"/>
  <rect x="130" y="208" width="420" height="14" rx="7" fill="#94A3B8"/>
  <rect x="130" y="234" width="360" height="14" rx="7" fill="#CBD5E1"/>
  <rect x="130" y="280" width="540" height="140" rx="16" fill="#DBEAFE"/>
  <rect x="150" y="304" width="170" height="18" rx="9" fill="#1D4ED8"/>
  <rect x="150" y="334" width="220" height="12" rx="6" fill="#60A5FA"/>
  <rect x="150" y="356" width="180" height="12" rx="6" fill="#93C5FD"/>
  <rect x="590" y="170" width="80" height="28" rx="14" fill="#2563EB"/>
</svg>
